<mxfile host="app.diagrams.net" modified="2021-07-19T09:43:19.580Z" agent="5.0 (X11; Linux x86_64) AppleWebKit/537.36 (KHTML, like Gecko) Chrome/87.0.4280.66 Safari/537.36" etag="FphlE_rA4albRGWHGioC" version="14.8.4" type="github">
  <diagram id="kgpKYQtTHZ0yAKxKKP6v" name="Page-1">
    <mxGraphModel dx="1030" dy="594" grid="1" gridSize="10" guides="1" tooltips="1" connect="1" arrows="1" fold="1" page="1" pageScale="1" pageWidth="850" pageHeight="1100" math="0" shadow="0">
      <root>
        <mxCell id="0" />
        <mxCell id="1" parent="0" />
        <mxCell id="PA9Gb0GiLKrFi85kX_a_-26" value="device" style="shape=umlLifeline;perimeter=lifelinePerimeter;container=1;collapsible=0;recursiveResize=0;rounded=0;shadow=0;strokeWidth=1;fontSize=14;fontStyle=1" vertex="1" parent="1">
          <mxGeometry x="240" y="80" width="100" height="810" as="geometry" />
        </mxCell>
        <mxCell id="PA9Gb0GiLKrFi85kX_a_-28" value="server" style="shape=umlLifeline;perimeter=lifelinePerimeter;container=1;collapsible=0;recursiveResize=0;rounded=0;shadow=0;strokeWidth=1;fontSize=14;fontStyle=1" vertex="1" parent="1">
          <mxGeometry x="460" y="80" width="100" height="810" as="geometry" />
        </mxCell>
        <mxCell id="PA9Gb0GiLKrFi85kX_a_-32" value="" style="html=1;points=[];perimeter=orthogonalPerimeter;fontSize=14;" vertex="1" parent="1">
          <mxGeometry x="285" y="153" width="10" height="50" as="geometry" />
        </mxCell>
        <mxCell id="PA9Gb0GiLKrFi85kX_a_-33" value="" style="html=1;points=[];perimeter=orthogonalPerimeter;fontSize=14;" vertex="1" parent="1">
          <mxGeometry x="505" y="163" width="10" height="80" as="geometry" />
        </mxCell>
        <mxCell id="PA9Gb0GiLKrFi85kX_a_-34" value="注册请求" style="html=1;verticalAlign=bottom;endArrow=block;dashed=1;fontSize=14;entryX=0;entryY=0;entryDx=0;entryDy=0;" edge="1" parent="1" source="PA9Gb0GiLKrFi85kX_a_-32" target="PA9Gb0GiLKrFi85kX_a_-33">
          <mxGeometry relative="1" as="geometry">
            <mxPoint x="440" y="163" as="sourcePoint" />
          </mxGeometry>
        </mxCell>
        <mxCell id="PA9Gb0GiLKrFi85kX_a_-35" value="注册成功/等待注册/注册失败" style="html=1;verticalAlign=bottom;endArrow=open;dashed=1;endSize=8;exitX=0;exitY=0.95;fontSize=14;entryX=0.49;entryY=0.27;entryDx=0;entryDy=0;entryPerimeter=0;" edge="1" parent="1">
          <mxGeometry relative="1" as="geometry">
            <mxPoint x="289" y="235" as="targetPoint" />
            <mxPoint x="505" y="235" as="sourcePoint" />
          </mxGeometry>
        </mxCell>
        <mxCell id="PA9Gb0GiLKrFi85kX_a_-38" value="" style="shape=curlyBracket;whiteSpace=wrap;html=1;rounded=1;flipH=1;" vertex="1" parent="1">
          <mxGeometry x="550" y="163" width="30" height="77" as="geometry" />
        </mxCell>
        <mxCell id="PA9Gb0GiLKrFi85kX_a_-39" value="&lt;font style=&quot;font-size: 14px&quot;&gt;&lt;b&gt;注册&lt;/b&gt;&lt;/font&gt;" style="rounded=0;whiteSpace=wrap;html=1;" vertex="1" parent="1">
          <mxGeometry x="600" y="171.5" width="80" height="48.5" as="geometry" />
        </mxCell>
        <mxCell id="PA9Gb0GiLKrFi85kX_a_-47" value="" style="html=1;points=[];perimeter=orthogonalPerimeter;fontSize=14;" vertex="1" parent="1">
          <mxGeometry x="285" y="310" width="10" height="50" as="geometry" />
        </mxCell>
        <mxCell id="PA9Gb0GiLKrFi85kX_a_-48" value="" style="html=1;points=[];perimeter=orthogonalPerimeter;fontSize=14;" vertex="1" parent="1">
          <mxGeometry x="505" y="320" width="10" height="80" as="geometry" />
        </mxCell>
        <mxCell id="PA9Gb0GiLKrFi85kX_a_-49" value="心跳包" style="html=1;verticalAlign=bottom;endArrow=block;dashed=1;fontSize=14;entryX=0;entryY=0;entryDx=0;entryDy=0;" edge="1" parent="1" source="PA9Gb0GiLKrFi85kX_a_-47" target="PA9Gb0GiLKrFi85kX_a_-48">
          <mxGeometry relative="1" as="geometry">
            <mxPoint x="440" y="320" as="sourcePoint" />
          </mxGeometry>
        </mxCell>
        <mxCell id="PA9Gb0GiLKrFi85kX_a_-50" value="接收成功/接收失败" style="html=1;verticalAlign=bottom;endArrow=open;dashed=1;endSize=8;exitX=0;exitY=0.95;fontSize=14;entryX=0.49;entryY=0.27;entryDx=0;entryDy=0;entryPerimeter=0;" edge="1" parent="1">
          <mxGeometry relative="1" as="geometry">
            <mxPoint x="289" y="392" as="targetPoint" />
            <mxPoint x="505" y="392" as="sourcePoint" />
          </mxGeometry>
        </mxCell>
        <mxCell id="PA9Gb0GiLKrFi85kX_a_-51" value="" style="shape=curlyBracket;whiteSpace=wrap;html=1;rounded=1;flipH=1;" vertex="1" parent="1">
          <mxGeometry x="550" y="320" width="30" height="77" as="geometry" />
        </mxCell>
        <mxCell id="PA9Gb0GiLKrFi85kX_a_-52" value="&lt;font style=&quot;font-size: 14px&quot;&gt;&lt;b&gt;心跳检测&lt;/b&gt;&lt;/font&gt;" style="rounded=0;whiteSpace=wrap;html=1;" vertex="1" parent="1">
          <mxGeometry x="600" y="328.5" width="80" height="48.5" as="geometry" />
        </mxCell>
        <mxCell id="PA9Gb0GiLKrFi85kX_a_-53" value="" style="html=1;points=[];perimeter=orthogonalPerimeter;fontSize=14;" vertex="1" parent="1">
          <mxGeometry x="285" y="470" width="10" height="50" as="geometry" />
        </mxCell>
        <mxCell id="PA9Gb0GiLKrFi85kX_a_-54" value="" style="html=1;points=[];perimeter=orthogonalPerimeter;fontSize=14;" vertex="1" parent="1">
          <mxGeometry x="505" y="480" width="10" height="80" as="geometry" />
        </mxCell>
        <mxCell id="PA9Gb0GiLKrFi85kX_a_-55" value="流量信息" style="html=1;verticalAlign=bottom;endArrow=block;dashed=1;fontSize=14;entryX=0;entryY=0;entryDx=0;entryDy=0;" edge="1" parent="1" source="PA9Gb0GiLKrFi85kX_a_-53" target="PA9Gb0GiLKrFi85kX_a_-54">
          <mxGeometry relative="1" as="geometry">
            <mxPoint x="440" y="480" as="sourcePoint" />
          </mxGeometry>
        </mxCell>
        <mxCell id="PA9Gb0GiLKrFi85kX_a_-56" value="接收成功/接收失败" style="html=1;verticalAlign=bottom;endArrow=open;dashed=1;endSize=8;exitX=0;exitY=0.95;fontSize=14;entryX=0.49;entryY=0.27;entryDx=0;entryDy=0;entryPerimeter=0;" edge="1" parent="1">
          <mxGeometry relative="1" as="geometry">
            <mxPoint x="289" y="552" as="targetPoint" />
            <mxPoint x="505" y="552" as="sourcePoint" />
          </mxGeometry>
        </mxCell>
        <mxCell id="PA9Gb0GiLKrFi85kX_a_-57" value="" style="shape=curlyBracket;whiteSpace=wrap;html=1;rounded=1;flipH=1;" vertex="1" parent="1">
          <mxGeometry x="550" y="480" width="30" height="77" as="geometry" />
        </mxCell>
        <mxCell id="PA9Gb0GiLKrFi85kX_a_-58" value="&lt;font style=&quot;font-size: 14px&quot;&gt;&lt;b&gt;流量&lt;/b&gt;&lt;/font&gt;" style="rounded=0;whiteSpace=wrap;html=1;" vertex="1" parent="1">
          <mxGeometry x="600" y="488.5" width="80" height="48.5" as="geometry" />
        </mxCell>
        <mxCell id="PA9Gb0GiLKrFi85kX_a_-59" value="" style="html=1;points=[];perimeter=orthogonalPerimeter;fontSize=14;" vertex="1" parent="1">
          <mxGeometry x="285" y="630" width="10" height="50" as="geometry" />
        </mxCell>
        <mxCell id="PA9Gb0GiLKrFi85kX_a_-60" value="" style="html=1;points=[];perimeter=orthogonalPerimeter;fontSize=14;" vertex="1" parent="1">
          <mxGeometry x="505" y="640" width="10" height="80" as="geometry" />
        </mxCell>
        <mxCell id="PA9Gb0GiLKrFi85kX_a_-61" value="设备详情" style="html=1;verticalAlign=bottom;endArrow=block;dashed=1;fontSize=14;exitX=0;exitY=0;exitDx=0;exitDy=0;" edge="1" parent="1" source="PA9Gb0GiLKrFi85kX_a_-60" target="PA9Gb0GiLKrFi85kX_a_-59">
          <mxGeometry relative="1" as="geometry">
            <mxPoint x="440" y="640" as="targetPoint" />
          </mxGeometry>
        </mxCell>
        <mxCell id="PA9Gb0GiLKrFi85kX_a_-62" value="详情内容" style="html=1;verticalAlign=bottom;endArrow=open;dashed=1;endSize=8;exitX=0;exitY=0.95;fontSize=14;entryX=0.49;entryY=0.27;entryDx=0;entryDy=0;entryPerimeter=0;" edge="1" parent="1">
          <mxGeometry relative="1" as="geometry">
            <mxPoint x="505" y="712" as="targetPoint" />
            <mxPoint x="289" y="712" as="sourcePoint" />
          </mxGeometry>
        </mxCell>
        <mxCell id="PA9Gb0GiLKrFi85kX_a_-63" value="" style="shape=curlyBracket;whiteSpace=wrap;html=1;rounded=1;flipH=1;" vertex="1" parent="1">
          <mxGeometry x="550" y="640" width="30" height="77" as="geometry" />
        </mxCell>
        <mxCell id="PA9Gb0GiLKrFi85kX_a_-64" value="&lt;font style=&quot;font-size: 14px&quot;&gt;&lt;b&gt;设备详情&lt;/b&gt;&lt;/font&gt;" style="rounded=0;whiteSpace=wrap;html=1;" vertex="1" parent="1">
          <mxGeometry x="600" y="648.5" width="80" height="48.5" as="geometry" />
        </mxCell>
        <mxCell id="PA9Gb0GiLKrFi85kX_a_-65" value="&lt;font style=&quot;font-size: 15px&quot;&gt;&lt;b&gt;设备与平台&lt;br&gt;交互信息&lt;/b&gt;&lt;/font&gt;" style="rounded=0;whiteSpace=wrap;html=1;" vertex="1" parent="1">
          <mxGeometry x="40" y="20" width="120" height="60" as="geometry" />
        </mxCell>
      </root>
    </mxGraphModel>
  </diagram>
</mxfile>
